<svg version="1.1" id="Layer_1" xmlns="http://www.w3.org/2000/svg" xmlns:xlink="http://www.w3.org/1999/xlink" x="0px" y="0px"
	 width="100%" viewBox="0 0 419 75" enable-background="new 0 0 419 75" xml:space="preserve">
<path fill="#FFFAF5" opacity="1.000000" stroke="none" 
	d="
M317.000000,76.000000 
	C211.333344,76.000000 106.166695,76.000000 1.000028,76.000000 
	C1.000019,51.000015 1.000019,26.000031 1.000009,1.000035 
	C140.666641,1.000023 280.333282,1.000023 419.999939,1.000012 
	C419.999939,25.999964 419.999939,50.999928 419.999969,75.999947 
	C385.833344,76.000000 351.666656,76.000000 317.000000,76.000000 
M59.779144,11.675107 
	C53.216797,6.250769 45.700603,3.642441 37.172241,3.978975 
	C22.792217,4.546420 12.362630,11.365412 6.784366,24.519505 
	C1.202650,37.681736 3.534966,50.120831 13.079631,60.720600 
	C22.952345,71.684685 35.724960,74.188652 49.172497,69.661133 
	C73.992371,61.304787 79.673431,30.736149 59.779144,11.675107 
M277.405609,38.969112 
	C277.405609,44.897942 277.405609,50.826771 277.405609,56.669662 
	C281.106689,56.669662 284.019623,56.669662 287.160980,56.669662 
	C287.160980,51.020092 287.168335,45.705650 287.155823,40.391262 
	C287.152679,39.059525 287.153168,37.722046 287.037384,36.397217 
	C286.194946,26.756638 276.040771,21.673851 267.804840,26.805229 
	C266.282684,27.753609 264.956604,29.016689 263.553925,30.123550 
	C257.053345,23.874615 252.580902,23.352255 244.263000,27.784645 
	C241.895142,22.831274 237.756561,25.968090 234.183228,25.164444 
	C234.183228,36.002930 234.183228,46.371101 234.183228,56.683918 
	C237.424347,56.683918 240.325989,56.683918 243.594925,56.683918 
	C243.594925,51.228909 243.653076,46.088261 243.576675,40.949619 
	C243.514587,36.773830 244.734299,33.625534 249.484955,33.355659 
	C253.492065,33.128029 255.660736,35.874622 255.740799,41.187531 
	C255.817917,46.304760 255.757477,51.424061 255.757477,56.730721 
	C259.130157,56.730721 262.028381,56.730721 265.329895,56.730721 
	C265.329895,50.997189 265.256165,45.532169 265.357666,40.070408 
	C265.418060,36.821003 266.559753,34.075405 270.221710,33.516479 
	C273.815735,32.967918 276.426270,34.241455 277.405609,38.969112 
M352.457306,49.711231 
	C357.826996,58.197594 364.686890,59.653839 373.594147,54.196075 
	C376.108429,59.610878 380.387604,56.060425 383.704468,56.809502 
	C383.704468,42.506760 383.704468,28.781864 383.704468,15.292968 
	C380.406647,15.292968 377.498505,15.292968 374.134460,15.292968 
	C374.134460,19.701590 374.134460,23.753130 374.134460,28.010281 
	C361.878632,21.901117 351.924225,26.365072 350.967896,38.217125 
	C350.682281,41.756592 351.688049,45.400261 352.457306,49.711231 
M87.991646,57.038090 
	C90.479149,57.047325 92.998169,57.314377 95.447937,57.014923 
	C101.523842,56.272224 105.715996,52.128017 106.445465,46.504757 
	C107.143135,41.126637 104.655655,37.455112 98.434761,34.851852 
	C95.528969,33.635864 92.527397,32.645237 89.640350,31.389040 
	C87.113213,30.289446 85.695099,27.984835 87.740532,25.952066 
	C88.870468,24.829115 93.025314,24.598009 93.674202,25.502239 
	C97.135353,30.325361 101.547005,27.929972 105.652580,28.231291 
	C106.078896,18.654276 94.413078,14.331455 84.623558,17.532690 
	C79.760239,19.123026 76.840813,22.487160 76.570580,27.792322 
	C76.297470,33.153881 78.974380,36.627190 83.751480,38.579803 
	C86.818863,39.833580 90.239044,40.433083 93.003983,42.133965 
	C94.490387,43.048347 94.927979,45.667671 95.838814,47.517700 
	C93.456001,47.876526 89.441399,49.231750 88.953857,48.433300 
	C85.664009,43.045509 80.967346,45.462917 76.666519,45.184402 
	C77.399727,52.089920 79.494835,54.390961 87.991646,57.038090 
M197.973877,53.557861 
	C204.275360,58.603558 209.434830,58.706047 216.435013,53.929523 
	C218.448853,59.811672 223.072281,55.833523 226.627686,57.043118 
	C226.627686,46.224667 226.627686,35.877396 226.627686,25.080095 
	C222.900421,26.189060 218.262909,22.323563 216.426193,28.356892 
	C206.356873,21.238695 195.797211,25.603170 193.673294,37.602859 
	C192.667404,43.285927 193.761093,48.473747 197.973877,53.557861 
M319.057953,23.508957 
	C316.610382,30.906864 314.162842,38.304771 311.292847,46.979515 
	C308.608734,38.924973 306.346344,32.199978 304.127136,25.460762 
	C301.142090,16.395712 301.156372,16.391005 291.117981,17.355705 
	C295.838531,30.646223 300.525513,43.842209 305.133881,56.816799 
	C317.236237,57.384220 317.234039,57.383442 321.074890,46.534286 
	C324.492828,36.879677 327.916412,27.227049 331.466187,17.210384 
	C327.742676,17.210384 324.632599,17.210384 321.323853,17.210384 
	C320.642975,19.056709 319.963379,20.899670 319.057953,23.508957 
M181.221146,55.979683 
	C185.115982,54.101250 187.808121,51.254475 188.496277,46.132027 
	C184.335205,46.595585 180.353683,47.442760 176.599396,48.882515 
	C172.740829,50.362263 169.556030,48.798279 168.032074,43.424252 
	C175.387299,43.424252 182.555420,43.424252 189.620926,43.424252 
	C190.543808,31.921141 184.587738,24.979372 174.436508,24.873636 
	C164.051376,24.765463 157.395264,31.932878 158.088211,42.477810 
	C158.838821,53.900772 168.381180,59.757416 181.221146,55.979683 
M400.024719,25.023115 
	C393.384308,26.842028 390.291626,29.912664 390.281494,34.696949 
	C390.271790,39.269142 393.216034,42.075897 399.889862,43.891502 
	C401.811615,44.414318 403.809235,44.797268 405.591492,45.630596 
	C406.393890,46.005775 407.128418,47.310173 407.174408,48.228958 
	C407.202606,48.792072 405.868866,49.919514 405.143402,49.922283 
	C403.569092,49.928295 401.322205,49.921806 400.534149,48.955231 
	C397.287048,44.972668 393.493622,46.819836 389.692902,46.967983 
	C390.842773,52.729156 394.047699,56.022793 399.658173,56.961998 
	C405.415863,57.925846 411.145538,57.913502 415.164825,52.718155 
	C418.492401,48.416832 416.972229,42.534061 411.905945,40.105106 
	C409.235229,38.824650 406.185394,38.356754 403.427368,37.227364 
	C402.043701,36.660755 400.885834,35.481934 399.765686,34.430916 
	C399.659058,34.330883 400.545441,32.599403 400.982361,32.594189 
	C402.703430,32.573658 405.241638,32.301121 406.008881,33.276566 
	C408.942871,37.006760 412.447998,35.508541 416.638184,35.381302 
	C415.881714,33.304539 415.582520,31.470526 414.637878,30.072701 
	C411.320648,25.164043 406.264709,24.530209 400.024719,25.023115 
M123.599182,18.147036 
	C120.559052,17.852713 117.518913,17.558390 114.274750,17.244316 
	C114.091454,20.220619 113.951645,22.490812 113.811836,24.761005 
	C112.021324,25.400908 110.288910,26.566212 110.294411,27.723240 
	C110.303307,29.591740 108.398209,32.514973 112.237724,33.381939 
	C113.002831,33.554699 113.824562,35.166424 113.938339,36.190384 
	C114.193443,38.486290 114.016953,40.829826 114.021339,43.153965 
	C114.043320,54.812176 117.883095,58.097618 129.931824,56.539318 
	C129.931824,54.160309 129.931824,51.749516 129.931824,50.249920 
	C127.575966,48.641861 124.463501,47.633186 124.193665,46.118202 
	C123.464287,42.023144 123.943909,37.712749 123.943909,33.598331 
	C126.454361,33.289013 128.184662,33.075821 129.713623,32.887432 
	C129.713623,30.112213 129.713623,27.727457 129.713623,25.398464 
	C127.559196,25.159914 125.811699,24.966423 123.844444,24.748598 
	C123.844444,22.627245 123.844444,20.812592 123.599182,18.147036 
M135.844620,50.432003 
	C135.844620,52.524345 135.844620,54.616684 135.844620,56.730934 
	C139.372940,56.730934 142.273743,56.730934 145.599899,56.730934 
	C145.599899,53.163929 145.598816,49.872257 145.600113,46.580585 
	C145.604095,36.460728 145.604446,36.460728 155.278564,34.592541 
	C155.278564,31.524536 155.278564,28.435362 155.278564,24.269072 
	C151.800110,25.857365 148.927887,27.168844 146.114014,28.453676 
	C144.602020,22.242662 139.763321,26.217037 135.844574,25.078077 
	C135.844574,33.584419 135.844574,41.514381 135.844620,50.432003 
M335.585907,34.532887 
	C335.585907,41.910431 335.585907,49.287979 335.585907,56.678123 
	C339.145386,56.678123 342.030426,56.678123 344.763519,56.678123 
	C344.763519,46.031166 344.763519,35.708122 344.763519,25.434580 
	C341.596649,25.434580 338.847839,25.434580 335.585693,25.434580 
	C335.585693,28.322870 335.585693,30.933268 335.585907,34.532887 
M334.916809,18.177685 
	C335.881073,19.246603 336.842590,21.205824 337.810150,21.208813 
	C340.212189,21.216244 343.039764,20.906929 344.853455,19.576063 
	C345.853760,18.842043 345.980072,14.756210 345.042297,14.007399 
	C343.281372,12.601257 340.276184,11.695109 338.148285,12.175409 
	C336.707733,12.500552 335.882233,15.550513 334.916809,18.177685 
z"/>
<path fill="#DE1141" opacity="1.000000" stroke="none" 
	d="
M60.051529,11.908056 
	C79.673431,30.736149 73.992371,61.304787 49.172497,69.661133 
	C35.724960,74.188652 22.952345,71.684685 13.079631,60.720600 
	C3.534966,50.120831 1.202650,37.681736 6.784366,24.519505 
	C12.362630,11.365412 22.792217,4.546420 37.172241,3.978975 
	C45.700603,3.642441 53.216797,6.250769 60.051529,11.908056 
M29.276718,33.515358 
	C29.276718,41.109379 29.276718,48.703396 29.276718,57.342148 
	C38.960464,50.740814 47.880543,44.660072 57.300282,38.238708 
	C47.849518,31.807125 38.942486,25.745569 29.276428,19.167471 
	C29.276428,24.552214 29.276428,28.537649 29.276718,33.515358 
z"/>
<path fill="#DF1544" opacity="1.000000" stroke="none" 
	d="
M277.330475,38.531769 
	C276.426270,34.241455 273.815735,32.967918 270.221710,33.516479 
	C266.559753,34.075405 265.418060,36.821003 265.357666,40.070408 
	C265.256165,45.532169 265.329895,50.997189 265.329895,56.730721 
	C262.028381,56.730721 259.130157,56.730721 255.757477,56.730721 
	C255.757477,51.424061 255.817917,46.304760 255.740799,41.187531 
	C255.660736,35.874622 253.492065,33.128029 249.484955,33.355659 
	C244.734299,33.625534 243.514587,36.773830 243.576675,40.949619 
	C243.653076,46.088261 243.594925,51.228909 243.594925,56.683918 
	C240.325989,56.683918 237.424347,56.683918 234.183228,56.683918 
	C234.183228,46.371101 234.183228,36.002930 234.183228,25.164444 
	C237.756561,25.968090 241.895142,22.831274 244.261810,27.790112 
	C252.580902,23.352255 257.053345,23.874615 263.553925,30.123550 
	C264.956604,29.016689 266.282684,27.753609 267.804840,26.805229 
	C276.040771,21.673851 286.194946,26.756638 287.037384,36.397217 
	C287.153168,37.722046 287.152679,39.059525 287.155823,40.391262 
	C287.168335,45.705650 287.160980,51.020092 287.160980,56.669662 
	C284.019623,56.669662 281.106689,56.669662 277.405609,56.669662 
	C277.405609,50.826771 277.405609,44.897942 277.330475,38.531769 
z"/>
<path fill="#DF1543" opacity="1.000000" stroke="none" 
	d="
M352.279724,49.353710 
	C351.688049,45.400261 350.682281,41.756592 350.967896,38.217125 
	C351.924225,26.365072 361.878632,21.901117 374.134460,28.010281 
	C374.134460,23.753130 374.134460,19.701590 374.134460,15.292968 
	C377.498505,15.292968 380.406647,15.292968 383.704468,15.292968 
	C383.704468,28.781864 383.704468,42.506760 383.704468,56.809502 
	C380.387604,56.060425 376.108429,59.610878 373.593933,54.197113 
	C364.686890,59.653839 357.826996,58.197594 352.279724,49.353710 
M372.912964,46.104034 
	C373.268799,43.544556 374.558655,40.610466 373.723633,38.528622 
	C372.849823,36.350018 370.023254,33.772354 367.885803,33.615902 
	C365.754791,33.459923 362.449799,35.585957 361.394867,37.614086 
	C359.685455,40.900581 360.018829,44.892742 363.427887,47.516216 
	C366.519196,49.895199 369.623444,49.361423 372.912964,46.104034 
z"/>
<path fill="#DF1644" opacity="1.000000" stroke="none" 
	d="
M87.564926,56.986603 
	C79.494835,54.390961 77.399727,52.089920 76.666519,45.184402 
	C80.967346,45.462917 85.664009,43.045509 88.953857,48.433300 
	C89.441399,49.231750 93.456001,47.876526 95.838814,47.517700 
	C94.927979,45.667671 94.490387,43.048347 93.003983,42.133965 
	C90.239044,40.433083 86.818863,39.833580 83.751480,38.579803 
	C78.974380,36.627190 76.297470,33.153881 76.570580,27.792322 
	C76.840813,22.487160 79.760239,19.123026 84.623558,17.532690 
	C94.413078,14.331455 106.078896,18.654276 105.652580,28.231291 
	C101.547005,27.929972 97.135353,30.325361 93.674202,25.502239 
	C93.025314,24.598009 88.870468,24.829115 87.740532,25.952066 
	C85.695099,27.984835 87.113213,30.289446 89.640350,31.389040 
	C92.527397,32.645237 95.528969,33.635864 98.434761,34.851852 
	C104.655655,37.455112 107.143135,41.126637 106.445465,46.504757 
	C105.715996,52.128017 101.523842,56.272224 95.447937,57.014923 
	C92.998169,57.314377 90.479149,57.047325 87.564926,56.986603 
z"/>
<path fill="#DF1544" opacity="1.000000" stroke="none" 
	d="
M197.709412,53.288216 
	C193.761093,48.473747 192.667404,43.285927 193.673294,37.602859 
	C195.797211,25.603170 206.356873,21.238695 216.426193,28.356892 
	C218.262909,22.323563 222.900421,26.189060 226.627686,25.080095 
	C226.627686,35.877396 226.627686,46.224667 226.627686,57.043118 
	C223.072281,55.833523 218.448853,59.811672 216.435669,53.927063 
	C209.434830,58.706047 204.275360,58.603558 197.709412,53.288216 
M203.208145,40.672600 
	C204.063904,46.602535 206.673035,49.395168 210.917633,48.924274 
	C214.865677,48.486279 217.390579,44.876286 217.036499,40.209984 
	C216.749619,36.429245 214.755280,33.837948 211.061188,33.395981 
	C206.497849,32.850010 204.098419,35.596027 203.208145,40.672600 
z"/>
<path fill="#DF1544" opacity="1.000000" stroke="none" 
	d="
M319.170868,23.125793 
	C319.963379,20.899670 320.642975,19.056709 321.323853,17.210384 
	C324.632599,17.210384 327.742676,17.210384 331.466187,17.210384 
	C327.916412,27.227049 324.492828,36.879677 321.074890,46.534286 
	C317.234039,57.383442 317.236237,57.384220 305.133881,56.816799 
	C300.525513,43.842209 295.838531,30.646223 291.117981,17.355705 
	C301.156372,16.391005 301.142090,16.395712 304.127136,25.460762 
	C306.346344,32.199978 308.608734,38.924973 311.292847,46.979515 
	C314.162842,38.304771 316.610382,30.906864 319.170868,23.125793 
z"/>
<path fill="#DF1745" opacity="1.000000" stroke="none" 
	d="
M180.863800,56.108391 
	C168.381180,59.757416 158.838821,53.900772 158.088211,42.477810 
	C157.395264,31.932878 164.051376,24.765463 174.436508,24.873636 
	C184.587738,24.979372 190.543808,31.921141 189.620926,43.424252 
	C182.555420,43.424252 175.387299,43.424252 168.032074,43.424252 
	C169.556030,48.798279 172.740829,50.362263 176.599396,48.882515 
	C180.353683,47.442760 184.335205,46.595585 188.496277,46.132027 
	C187.808121,51.254475 185.115982,54.101250 180.863800,56.108391 
M168.818359,35.429192 
	C169.150024,36.288132 169.437973,37.869438 169.820206,37.892567 
	C173.090363,38.090454 176.377625,38.006020 179.761032,38.006020 
	C178.053818,32.122650 174.650345,31.172131 168.818359,35.429192 
z"/>
<path fill="#DF1745" opacity="1.000000" stroke="none" 
	d="
M400.453125,24.990891 
	C406.264709,24.530209 411.320648,25.164043 414.637878,30.072701 
	C415.582520,31.470526 415.881714,33.304539 416.638184,35.381302 
	C412.447998,35.508541 408.942871,37.006760 406.008881,33.276566 
	C405.241638,32.301121 402.703430,32.573658 400.982361,32.594189 
	C400.545441,32.599403 399.659058,34.330883 399.765686,34.430916 
	C400.885834,35.481934 402.043701,36.660755 403.427368,37.227364 
	C406.185394,38.356754 409.235229,38.824650 411.905945,40.105106 
	C416.972229,42.534061 418.492401,48.416832 415.164825,52.718155 
	C411.145538,57.913502 405.415863,57.925846 399.658173,56.961998 
	C394.047699,56.022793 390.842773,52.729156 389.692902,46.967983 
	C393.493622,46.819836 397.287048,44.972668 400.534149,48.955231 
	C401.322205,49.921806 403.569092,49.928295 405.143402,49.922283 
	C405.868866,49.919514 407.202606,48.792072 407.174408,48.228958 
	C407.128418,47.310173 406.393890,46.005775 405.591492,45.630596 
	C403.809235,44.797268 401.811615,44.414318 399.889862,43.891502 
	C393.216034,42.075897 390.271790,39.269142 390.281494,34.696949 
	C390.291626,29.912664 393.384308,26.842028 400.453125,24.990891 
z"/>
<path fill="#DF1645" opacity="1.000000" stroke="none" 
	d="
M123.721817,18.572487 
	C123.844444,20.812592 123.844444,22.627245 123.844444,24.748598 
	C125.811699,24.966423 127.559196,25.159914 129.713623,25.398464 
	C129.713623,27.727457 129.713623,30.112213 129.713623,32.887432 
	C128.184662,33.075821 126.454361,33.289013 123.943909,33.598331 
	C123.943909,37.712749 123.464287,42.023144 124.193665,46.118202 
	C124.463501,47.633186 127.575966,48.641861 129.931824,50.249920 
	C129.931824,51.749516 129.931824,54.160309 129.931824,56.539318 
	C117.883095,58.097618 114.043320,54.812176 114.021339,43.153965 
	C114.016953,40.829826 114.193443,38.486290 113.938339,36.190384 
	C113.824562,35.166424 113.002831,33.554699 112.237724,33.381939 
	C108.398209,32.514973 110.303307,29.591740 110.294411,27.723240 
	C110.288910,26.566212 112.021324,25.400908 113.811836,24.761005 
	C113.951645,22.490812 114.091454,20.220619 114.274750,17.244316 
	C117.518913,17.558390 120.559052,17.852713 123.721817,18.572487 
z"/>
<path fill="#DF1846" opacity="1.000000" stroke="none" 
	d="
M135.844604,49.938175 
	C135.844574,41.514381 135.844574,33.584419 135.844574,25.078077 
	C139.763321,26.217037 144.602020,22.242662 146.114014,28.453676 
	C148.927887,27.168844 151.800110,25.857365 155.278564,24.269072 
	C155.278564,28.435362 155.278564,31.524536 155.278564,34.592541 
	C145.604446,36.460728 145.604095,36.460728 145.600113,46.580585 
	C145.598816,49.872257 145.599899,53.163929 145.599899,56.730934 
	C142.273743,56.730934 139.372940,56.730934 135.844620,56.730934 
	C135.844620,54.616684 135.844620,52.524345 135.844604,49.938175 
z"/>
<path fill="#DE1140" opacity="1.000000" stroke="none" 
	d="
M335.585815,34.038277 
	C335.585693,30.933268 335.585693,28.322870 335.585693,25.434580 
	C338.847839,25.434580 341.596649,25.434580 344.763519,25.434580 
	C344.763519,35.708122 344.763519,46.031166 344.763519,56.678123 
	C342.030426,56.678123 339.145386,56.678123 335.585907,56.678123 
	C335.585907,49.287979 335.585907,41.910431 335.585815,34.038277 
z"/>
<path fill="#DF1A47" opacity="1.000000" stroke="none" 
	d="
M334.849243,17.779728 
	C335.882233,15.550513 336.707733,12.500552 338.148285,12.175409 
	C340.276184,11.695109 343.281372,12.601257 345.042297,14.007399 
	C345.980072,14.756210 345.853760,18.842043 344.853455,19.576063 
	C343.039764,20.906929 340.212189,21.216244 337.810150,21.208813 
	C336.842590,21.205824 335.881073,19.246603 334.849243,17.779728 
z"/>
<path fill="#FEF3F0" opacity="1.000000" stroke="none" 
	d="
M29.276573,33.019222 
	C29.276428,28.537649 29.276428,24.552214 29.276428,19.167471 
	C38.942486,25.745569 47.849518,31.807125 57.300282,38.238708 
	C47.880543,44.660072 38.960464,50.740814 29.276718,57.342148 
	C29.276718,48.703396 29.276718,41.109379 29.276573,33.019222 
z"/>
<path fill="#FEF6F2" opacity="1.000000" stroke="none" 
	d="
M372.665222,46.421852 
	C369.623444,49.361423 366.519196,49.895199 363.427887,47.516216 
	C360.018829,44.892742 359.685455,40.900581 361.394867,37.614086 
	C362.449799,35.585957 365.754791,33.459923 367.885803,33.615902 
	C370.023254,33.772354 372.849823,36.350018 373.723633,38.528622 
	C374.558655,40.610466 373.268799,43.544556 372.665222,46.421852 
z"/>
<path fill="#FEF4F0" opacity="1.000000" stroke="none" 
	d="
M203.241989,40.283073 
	C204.098419,35.596027 206.497849,32.850010 211.061188,33.395981 
	C214.755280,33.837948 216.749619,36.429245 217.036499,40.209984 
	C217.390579,44.876286 214.865677,48.486279 210.917633,48.924274 
	C206.673035,49.395168 204.063904,46.602535 203.241989,40.283073 
z"/>
<path fill="#FEF7F2" opacity="1.000000" stroke="none" 
	d="
M169.037476,35.083500 
	C174.650345,31.172131 178.053818,32.122650 179.761032,38.006020 
	C176.377625,38.006020 173.090363,38.090454 169.820206,37.892567 
	C169.437973,37.869438 169.150024,36.288132 169.037476,35.083500 
z"/>
</svg>